<svg xmlns="http://www.w3.org/2000/svg" viewBox="0 0 399.84 400"><defs><style>.cls-1{fill:#d60056;}.cls-2{fill:#fff;}</style></defs><g id="Layer_2" data-name="Layer 2"><g id="Layer_1-2" data-name="Layer 1"><g id="Artwork_3" data-name="Artwork 3"><g id="Artwork_3-2" data-name="Artwork 3"><path class="cls-1" d="M399.84,0V200.51c0,5.38-.18,10.76-.63,16.12-.17,2.13-.31,4.26-.56,6.39a199.12,199.12,0,0,1-57.21,118.4c-78.11,78.11-204.75,78.11-282.86,0s-78.11-204.76,0-282.86A200.57,200.57,0,0,1,198.88,0Z"/><path class="cls-2" d="M142.92,113.93H124.25V170c-9-12.19-21.9-15.05-34.67-15.05-34.86,0-53,25-53,52.76,0,28.39,17.15,53.73,53.15,53.73,13-.19,27.05-4.39,34.48-15.62v13.9h18.67Z"/><path class="cls-2" d="M293,155.85H273.15c-3,9.34-6.28,18.86-9.52,28.19-4.76,14.86-8.95,29.53-12.19,44.2l-20.77-69.53H214.1l-20.57,69.53c-3.43-14.67-7.43-29.34-12.39-44.2-3-9.33-6.28-18.85-9.33-28.19H152l34.67,103.82h14.09l12.77-40.38,8.95-31,9,31L244,259.67H258.3Z"/><path class="cls-2" d="M362.66,113.52c-27.31-2.1-42.08,7.38-42.23,32.05v10.48H301.61v16.32h18.82v87.35h18.81V172.37h19V156.05h-19V145.47c.21-15.11,10.13-17.54,23.42-16.21Z"/><path class="cls-1" d="M124.25,208.1c0,24.19-16.57,36.38-33.71,36.76-23.63.57-35.44-18.29-35.25-37.15.19-18.09,11.43-36,33.91-36.38C106.73,171.14,124.25,183.33,124.25,208.1Z"/></g></g></g></g></svg>